<mxfile host="app.diagrams.net" agent="Mozilla/5.0 (Windows NT 10.0; Win64; x64) AppleWebKit/537.36 (KHTML, like Gecko) Chrome/135.0.0.0 Safari/537.36" version="26.2.14">
  <diagram id="C5RBs43oDa-KdzZeNtuy" name="Page-1">
    <mxGraphModel dx="901" dy="536" grid="0" gridSize="10" guides="1" tooltips="1" connect="1" arrows="1" fold="1" page="1" pageScale="1" pageWidth="827" pageHeight="1169" background="light-dark(#FFFFFF,#FFFFFF)" math="0" shadow="0">
      <root>
        <mxCell id="WIyWlLk6GJQsqaUBKTNV-0" />
        <mxCell id="WIyWlLk6GJQsqaUBKTNV-1" parent="WIyWlLk6GJQsqaUBKTNV-0" />
        <mxCell id="_4H9zCoZYmA3ha7WxSan-47" style="edgeStyle=orthogonalEdgeStyle;rounded=0;orthogonalLoop=1;jettySize=auto;html=1;exitX=1;exitY=0.5;exitDx=0;exitDy=0;entryX=0;entryY=0.5;entryDx=0;entryDy=0;strokeColor=#0B4D6A;" edge="1" parent="WIyWlLk6GJQsqaUBKTNV-1" source="_4H9zCoZYmA3ha7WxSan-0" target="_4H9zCoZYmA3ha7WxSan-46">
          <mxGeometry relative="1" as="geometry" />
        </mxCell>
        <mxCell id="_4H9zCoZYmA3ha7WxSan-0" value="Login Page" style="ellipse;whiteSpace=wrap;html=1;labelBackgroundColor=none;fillColor=light-dark(#CCE5FF,#15417E);strokeColor=#BAC8D3;fontColor=light-dark(#FFFFFF,#FFFFFF);" vertex="1" parent="WIyWlLk6GJQsqaUBKTNV-1">
          <mxGeometry x="42" y="64" width="90" height="60" as="geometry" />
        </mxCell>
        <mxCell id="_4H9zCoZYmA3ha7WxSan-49" style="edgeStyle=orthogonalEdgeStyle;rounded=0;orthogonalLoop=1;jettySize=auto;html=1;exitX=0.5;exitY=1;exitDx=0;exitDy=0;entryX=0.5;entryY=0;entryDx=0;entryDy=0;strokeColor=#0B4D6A;" edge="1" parent="WIyWlLk6GJQsqaUBKTNV-1" source="_4H9zCoZYmA3ha7WxSan-46" target="_4H9zCoZYmA3ha7WxSan-48">
          <mxGeometry relative="1" as="geometry" />
        </mxCell>
        <mxCell id="_4H9zCoZYmA3ha7WxSan-107" style="edgeStyle=orthogonalEdgeStyle;rounded=0;orthogonalLoop=1;jettySize=auto;html=1;exitX=0.5;exitY=0;exitDx=0;exitDy=0;entryX=0.5;entryY=0;entryDx=0;entryDy=0;strokeColor=#0B4D6A;" edge="1" parent="WIyWlLk6GJQsqaUBKTNV-1" source="_4H9zCoZYmA3ha7WxSan-46" target="_4H9zCoZYmA3ha7WxSan-72">
          <mxGeometry relative="1" as="geometry">
            <Array as="points">
              <mxPoint x="219" y="66" />
              <mxPoint x="389" y="66" />
            </Array>
          </mxGeometry>
        </mxCell>
        <mxCell id="_4H9zCoZYmA3ha7WxSan-108" value="Pressed on the pie chart" style="edgeLabel;html=1;align=center;verticalAlign=middle;resizable=0;points=[];strokeColor=#BAC8D3;fontColor=#EEEEEE;fillColor=#09555B;labelBackgroundColor=none;" vertex="1" connectable="0" parent="_4H9zCoZYmA3ha7WxSan-107">
          <mxGeometry x="-0.4329" y="3" relative="1" as="geometry">
            <mxPoint x="6" y="-6" as="offset" />
          </mxGeometry>
        </mxCell>
        <mxCell id="_4H9zCoZYmA3ha7WxSan-46" value="DashBoard Page" style="rounded=1;whiteSpace=wrap;html=1;strokeColor=#BAC8D3;fontColor=#EEEEEE;fillColor=#09555B;" vertex="1" parent="WIyWlLk6GJQsqaUBKTNV-1">
          <mxGeometry x="167" y="76.5" width="105" height="35" as="geometry" />
        </mxCell>
        <mxCell id="_4H9zCoZYmA3ha7WxSan-51" style="edgeStyle=orthogonalEdgeStyle;rounded=0;orthogonalLoop=1;jettySize=auto;html=1;exitX=1;exitY=0.5;exitDx=0;exitDy=0;strokeColor=#0B4D6A;labelBackgroundColor=none;fontColor=light-dark(#000000,#000000);entryX=0;entryY=0.5;entryDx=0;entryDy=0;" edge="1" parent="WIyWlLk6GJQsqaUBKTNV-1" source="_4H9zCoZYmA3ha7WxSan-48" target="_4H9zCoZYmA3ha7WxSan-72">
          <mxGeometry relative="1" as="geometry" />
        </mxCell>
        <mxCell id="_4H9zCoZYmA3ha7WxSan-52" value="&lt;span&gt;Trends&lt;/span&gt;" style="edgeLabel;html=1;align=center;verticalAlign=middle;resizable=0;points=[];strokeColor=#BAC8D3;fontColor=#EEEEEE;fillColor=#09555B;labelBackgroundColor=none;" vertex="1" connectable="0" parent="_4H9zCoZYmA3ha7WxSan-51">
          <mxGeometry x="-0.1896" y="5" relative="1" as="geometry">
            <mxPoint y="-4" as="offset" />
          </mxGeometry>
        </mxCell>
        <mxCell id="_4H9zCoZYmA3ha7WxSan-53" style="edgeStyle=orthogonalEdgeStyle;rounded=0;orthogonalLoop=1;jettySize=auto;html=1;exitX=0.5;exitY=0;exitDx=0;exitDy=0;entryX=1;entryY=0.5;entryDx=0;entryDy=0;strokeColor=#0B4D6A;" edge="1" parent="WIyWlLk6GJQsqaUBKTNV-1" source="_4H9zCoZYmA3ha7WxSan-48" target="_4H9zCoZYmA3ha7WxSan-46">
          <mxGeometry relative="1" as="geometry">
            <Array as="points">
              <mxPoint x="305" y="170" />
              <mxPoint x="305" y="94" />
            </Array>
          </mxGeometry>
        </mxCell>
        <mxCell id="_4H9zCoZYmA3ha7WxSan-55" value="Home" style="edgeLabel;html=1;align=center;verticalAlign=middle;resizable=0;points=[];strokeColor=#BAC8D3;fontColor=#EEEEEE;fillColor=#09555B;labelBackgroundColor=none;" vertex="1" connectable="0" parent="_4H9zCoZYmA3ha7WxSan-53">
          <mxGeometry x="-0.6657" y="-1" relative="1" as="geometry">
            <mxPoint x="15" y="-12" as="offset" />
          </mxGeometry>
        </mxCell>
        <mxCell id="_4H9zCoZYmA3ha7WxSan-81" style="edgeStyle=orthogonalEdgeStyle;rounded=0;orthogonalLoop=1;jettySize=auto;html=1;exitX=0;exitY=0.5;exitDx=0;exitDy=0;entryX=0.5;entryY=1;entryDx=0;entryDy=0;strokeColor=#0B4D6A;" edge="1" parent="WIyWlLk6GJQsqaUBKTNV-1" source="_4H9zCoZYmA3ha7WxSan-48" target="_4H9zCoZYmA3ha7WxSan-0">
          <mxGeometry relative="1" as="geometry" />
        </mxCell>
        <mxCell id="_4H9zCoZYmA3ha7WxSan-83" value="Logout" style="edgeLabel;html=1;align=center;verticalAlign=middle;resizable=0;points=[];strokeColor=#BAC8D3;fontColor=#EEEEEE;fillColor=#09555B;labelBackgroundColor=none;" vertex="1" connectable="0" parent="_4H9zCoZYmA3ha7WxSan-81">
          <mxGeometry x="-0.5676" y="2" relative="1" as="geometry">
            <mxPoint x="3" y="-11" as="offset" />
          </mxGeometry>
        </mxCell>
        <mxCell id="_4H9zCoZYmA3ha7WxSan-85" style="edgeStyle=orthogonalEdgeStyle;rounded=0;orthogonalLoop=1;jettySize=auto;html=1;exitX=0.5;exitY=1;exitDx=0;exitDy=0;entryX=0.5;entryY=0;entryDx=0;entryDy=0;strokeColor=#0B4D6A;" edge="1" parent="WIyWlLk6GJQsqaUBKTNV-1" source="_4H9zCoZYmA3ha7WxSan-48" target="_4H9zCoZYmA3ha7WxSan-84">
          <mxGeometry relative="1" as="geometry">
            <Array as="points">
              <mxPoint x="219" y="255" />
              <mxPoint x="123" y="255" />
            </Array>
          </mxGeometry>
        </mxCell>
        <mxCell id="_4H9zCoZYmA3ha7WxSan-86" value="Budget" style="edgeLabel;html=1;align=center;verticalAlign=middle;resizable=0;points=[];strokeColor=#BAC8D3;fontColor=#EEEEEE;fillColor=#09555B;labelBackgroundColor=none;" vertex="1" connectable="0" parent="_4H9zCoZYmA3ha7WxSan-85">
          <mxGeometry x="-0.2917" y="-1" relative="1" as="geometry">
            <mxPoint x="-15" y="-8" as="offset" />
          </mxGeometry>
        </mxCell>
        <mxCell id="_4H9zCoZYmA3ha7WxSan-95" style="edgeStyle=orthogonalEdgeStyle;rounded=0;orthogonalLoop=1;jettySize=auto;html=1;exitX=1;exitY=1;exitDx=0;exitDy=0;entryX=0.5;entryY=0;entryDx=0;entryDy=0;strokeColor=#0B4D6A;" edge="1" parent="WIyWlLk6GJQsqaUBKTNV-1" source="_4H9zCoZYmA3ha7WxSan-48" target="_4H9zCoZYmA3ha7WxSan-94">
          <mxGeometry relative="1" as="geometry">
            <Array as="points">
              <mxPoint x="247" y="236" />
              <mxPoint x="325" y="236" />
            </Array>
          </mxGeometry>
        </mxCell>
        <mxCell id="_4H9zCoZYmA3ha7WxSan-96" value="Upload" style="edgeLabel;html=1;align=center;verticalAlign=middle;resizable=0;points=[];strokeColor=#BAC8D3;fontColor=#EEEEEE;fillColor=#09555B;labelBackgroundColor=none;" vertex="1" connectable="0" parent="_4H9zCoZYmA3ha7WxSan-95">
          <mxGeometry x="-0.1438" y="1" relative="1" as="geometry">
            <mxPoint x="-2" y="-9" as="offset" />
          </mxGeometry>
        </mxCell>
        <mxCell id="_4H9zCoZYmA3ha7WxSan-48" value="Which nav bar&amp;nbsp;&lt;div&gt;button pressed&lt;/div&gt;" style="rhombus;whiteSpace=wrap;html=1;fillColor=#76608a;fontColor=#ffffff;strokeColor=#432D57;" vertex="1" parent="WIyWlLk6GJQsqaUBKTNV-1">
          <mxGeometry x="163.87" y="170" width="111.25" height="76" as="geometry" />
        </mxCell>
        <mxCell id="_4H9zCoZYmA3ha7WxSan-57" style="edgeStyle=orthogonalEdgeStyle;rounded=0;orthogonalLoop=1;jettySize=auto;html=1;exitX=0.5;exitY=1;exitDx=0;exitDy=0;entryX=0.5;entryY=0;entryDx=0;entryDy=0;strokeColor=#0B4D6A;" edge="1" parent="WIyWlLk6GJQsqaUBKTNV-1" source="_4H9zCoZYmA3ha7WxSan-50" target="_4H9zCoZYmA3ha7WxSan-56">
          <mxGeometry relative="1" as="geometry" />
        </mxCell>
        <mxCell id="_4H9zCoZYmA3ha7WxSan-70" style="edgeStyle=orthogonalEdgeStyle;rounded=0;orthogonalLoop=1;jettySize=auto;html=1;exitX=0.5;exitY=0;exitDx=0;exitDy=0;entryX=0.5;entryY=1;entryDx=0;entryDy=0;strokeColor=#0B4D6A;" edge="1" parent="WIyWlLk6GJQsqaUBKTNV-1" source="_4H9zCoZYmA3ha7WxSan-50" target="_4H9zCoZYmA3ha7WxSan-69">
          <mxGeometry relative="1" as="geometry" />
        </mxCell>
        <mxCell id="_4H9zCoZYmA3ha7WxSan-71" value="Pressed &quot;Next&quot; Button" style="edgeLabel;html=1;align=center;verticalAlign=middle;resizable=0;points=[];strokeColor=#BAC8D3;fontColor=#EEEEEE;fillColor=#09555B;labelBackgroundColor=none;" vertex="1" connectable="0" parent="_4H9zCoZYmA3ha7WxSan-70">
          <mxGeometry x="-0.1539" y="4" relative="1" as="geometry">
            <mxPoint x="-56" y="1" as="offset" />
          </mxGeometry>
        </mxCell>
        <mxCell id="_4H9zCoZYmA3ha7WxSan-50" value="Trends Page&amp;nbsp;&lt;div&gt;- Part 1&lt;/div&gt;" style="rounded=1;whiteSpace=wrap;html=1;strokeColor=#BAC8D3;fontColor=#EEEEEE;fillColor=light-dark(#09555B,#99FF99);" vertex="1" parent="WIyWlLk6GJQsqaUBKTNV-1">
          <mxGeometry x="483.43" y="190.5" width="105" height="35" as="geometry" />
        </mxCell>
        <mxCell id="_4H9zCoZYmA3ha7WxSan-61" style="edgeStyle=orthogonalEdgeStyle;rounded=0;orthogonalLoop=1;jettySize=auto;html=1;exitX=1;exitY=0.5;exitDx=0;exitDy=0;entryX=0;entryY=0.5;entryDx=0;entryDy=0;strokeColor=#0B4D6A;" edge="1" parent="WIyWlLk6GJQsqaUBKTNV-1" source="_4H9zCoZYmA3ha7WxSan-56" target="_4H9zCoZYmA3ha7WxSan-60">
          <mxGeometry relative="1" as="geometry" />
        </mxCell>
        <mxCell id="_4H9zCoZYmA3ha7WxSan-62" value="Weekly" style="edgeLabel;html=1;align=center;verticalAlign=middle;resizable=0;points=[];strokeColor=#BAC8D3;fontColor=#EEEEEE;fillColor=#09555B;labelBackgroundColor=none;" vertex="1" connectable="0" parent="_4H9zCoZYmA3ha7WxSan-61">
          <mxGeometry x="-0.0008" y="1" relative="1" as="geometry">
            <mxPoint x="-4" y="-7" as="offset" />
          </mxGeometry>
        </mxCell>
        <mxCell id="_4H9zCoZYmA3ha7WxSan-64" style="edgeStyle=orthogonalEdgeStyle;rounded=0;orthogonalLoop=1;jettySize=auto;html=1;exitX=0.5;exitY=1;exitDx=0;exitDy=0;entryX=0.5;entryY=0;entryDx=0;entryDy=0;strokeColor=#0B4D6A;" edge="1" parent="WIyWlLk6GJQsqaUBKTNV-1" source="_4H9zCoZYmA3ha7WxSan-56">
          <mxGeometry relative="1" as="geometry">
            <mxPoint x="533.5" y="352" as="targetPoint" />
          </mxGeometry>
        </mxCell>
        <mxCell id="_4H9zCoZYmA3ha7WxSan-68" value="Monthly" style="edgeLabel;html=1;align=center;verticalAlign=middle;resizable=0;points=[];strokeColor=#BAC8D3;fontColor=#EEEEEE;fillColor=#09555B;labelBackgroundColor=none;" vertex="1" connectable="0" parent="_4H9zCoZYmA3ha7WxSan-64">
          <mxGeometry x="-0.3538" y="-1" relative="1" as="geometry">
            <mxPoint x="25" y="2" as="offset" />
          </mxGeometry>
        </mxCell>
        <mxCell id="_4H9zCoZYmA3ha7WxSan-56" value="Selected&amp;nbsp;&lt;div&gt;range of time&lt;/div&gt;" style="rhombus;whiteSpace=wrap;html=1;strokeColor=#BAC8D3;fontColor=#EEEEEE;fillColor=light-dark(#09555B,#99FF99);" vertex="1" parent="WIyWlLk6GJQsqaUBKTNV-1">
          <mxGeometry x="483.43" y="252" width="100.13" height="75" as="geometry" />
        </mxCell>
        <mxCell id="_4H9zCoZYmA3ha7WxSan-67" style="edgeStyle=orthogonalEdgeStyle;rounded=0;orthogonalLoop=1;jettySize=auto;html=1;exitX=0.5;exitY=1;exitDx=0;exitDy=0;entryX=1;entryY=0.5;entryDx=0;entryDy=0;strokeColor=#0B4D6A;" edge="1" parent="WIyWlLk6GJQsqaUBKTNV-1" source="_4H9zCoZYmA3ha7WxSan-60" target="_4H9zCoZYmA3ha7WxSan-65">
          <mxGeometry relative="1" as="geometry">
            <Array as="points">
              <mxPoint x="699.99" y="439" />
              <mxPoint x="574.99" y="439" />
            </Array>
          </mxGeometry>
        </mxCell>
        <mxCell id="_4H9zCoZYmA3ha7WxSan-60" value="Retrieve weekly data from database" style="rounded=1;whiteSpace=wrap;html=1;strokeColor=#BAC8D3;fontColor=#EEEEEE;fillColor=light-dark(#09555B,#99FF99);" vertex="1" parent="WIyWlLk6GJQsqaUBKTNV-1">
          <mxGeometry x="637.99" y="272" width="125" height="35" as="geometry" />
        </mxCell>
        <mxCell id="_4H9zCoZYmA3ha7WxSan-66" style="edgeStyle=orthogonalEdgeStyle;rounded=0;orthogonalLoop=1;jettySize=auto;html=1;exitX=0.5;exitY=1;exitDx=0;exitDy=0;entryX=0.5;entryY=0;entryDx=0;entryDy=0;strokeColor=#0B4D6A;" edge="1" parent="WIyWlLk6GJQsqaUBKTNV-1" target="_4H9zCoZYmA3ha7WxSan-65">
          <mxGeometry relative="1" as="geometry">
            <mxPoint x="533.5" y="387" as="sourcePoint" />
          </mxGeometry>
        </mxCell>
        <mxCell id="_4H9zCoZYmA3ha7WxSan-63" value="Retrieve monthly data from database" style="rounded=1;whiteSpace=wrap;html=1;strokeColor=#BAC8D3;fontColor=#EEEEEE;fillColor=light-dark(#09555B,#99FF99);" vertex="1" parent="WIyWlLk6GJQsqaUBKTNV-1">
          <mxGeometry x="471" y="352" width="125" height="35" as="geometry" />
        </mxCell>
        <mxCell id="_4H9zCoZYmA3ha7WxSan-65" value="Show graphs" style="shape=parallelogram;perimeter=parallelogramPerimeter;whiteSpace=wrap;html=1;fixedSize=1;strokeColor=#BAC8D3;fontColor=#EEEEEE;fillColor=light-dark(#09555B,#99FF99);" vertex="1" parent="WIyWlLk6GJQsqaUBKTNV-1">
          <mxGeometry x="481.99" y="418" width="103" height="41" as="geometry" />
        </mxCell>
        <mxCell id="_4H9zCoZYmA3ha7WxSan-79" style="edgeStyle=orthogonalEdgeStyle;rounded=0;orthogonalLoop=1;jettySize=auto;html=1;exitX=1;exitY=0.5;exitDx=0;exitDy=0;entryX=1;entryY=0.5;entryDx=0;entryDy=0;strokeColor=#0B4D6A;" edge="1" parent="WIyWlLk6GJQsqaUBKTNV-1" source="_4H9zCoZYmA3ha7WxSan-69" target="_4H9zCoZYmA3ha7WxSan-50">
          <mxGeometry relative="1" as="geometry" />
        </mxCell>
        <mxCell id="_4H9zCoZYmA3ha7WxSan-80" value="&lt;span style=&quot;&quot;&gt;Pressed &quot;Back&quot; button&lt;/span&gt;" style="edgeLabel;html=1;align=center;verticalAlign=middle;resizable=0;points=[];strokeColor=#BAC8D3;fontColor=#EEEEEE;fillColor=#09555B;labelBackgroundColor=none;" vertex="1" connectable="0" parent="_4H9zCoZYmA3ha7WxSan-79">
          <mxGeometry x="-0.0235" relative="1" as="geometry">
            <mxPoint x="57" y="2" as="offset" />
          </mxGeometry>
        </mxCell>
        <mxCell id="_4H9zCoZYmA3ha7WxSan-69" value="Trends Page&lt;div&gt;- Part 2&lt;/div&gt;" style="rounded=1;whiteSpace=wrap;html=1;strokeColor=#BAC8D3;fontColor=#EEEEEE;fillColor=light-dark(#09555B,#00FF00);" vertex="1" parent="WIyWlLk6GJQsqaUBKTNV-1">
          <mxGeometry x="481" y="116" width="105" height="35" as="geometry" />
        </mxCell>
        <mxCell id="_4H9zCoZYmA3ha7WxSan-77" style="edgeStyle=orthogonalEdgeStyle;rounded=0;orthogonalLoop=1;jettySize=auto;html=1;exitX=1;exitY=0.5;exitDx=0;exitDy=0;entryX=0;entryY=0.5;entryDx=0;entryDy=0;strokeColor=#0B4D6A;" edge="1" parent="WIyWlLk6GJQsqaUBKTNV-1" source="_4H9zCoZYmA3ha7WxSan-72" target="_4H9zCoZYmA3ha7WxSan-50">
          <mxGeometry relative="1" as="geometry" />
        </mxCell>
        <mxCell id="_4H9zCoZYmA3ha7WxSan-72" value="Retrieve all related data from database" style="rounded=1;whiteSpace=wrap;html=1;strokeColor=#BAC8D3;fontColor=#EEEEEE;fillColor=light-dark(#09555B,#99FF99);" vertex="1" parent="WIyWlLk6GJQsqaUBKTNV-1">
          <mxGeometry x="326" y="190.5" width="125" height="35" as="geometry" />
        </mxCell>
        <mxCell id="_4H9zCoZYmA3ha7WxSan-88" style="edgeStyle=orthogonalEdgeStyle;rounded=0;orthogonalLoop=1;jettySize=auto;html=1;exitX=0.5;exitY=1;exitDx=0;exitDy=0;entryX=0.5;entryY=0;entryDx=0;entryDy=0;strokeColor=#0B4D6A;" edge="1" parent="WIyWlLk6GJQsqaUBKTNV-1" source="_4H9zCoZYmA3ha7WxSan-84" target="_4H9zCoZYmA3ha7WxSan-87">
          <mxGeometry relative="1" as="geometry" />
        </mxCell>
        <mxCell id="_4H9zCoZYmA3ha7WxSan-84" value="Retrieve related data from database" style="rounded=1;whiteSpace=wrap;html=1;strokeColor=#BAC8D3;fontColor=#EEEEEE;fillColor=light-dark(#09555B,#7EA6E0);" vertex="1" parent="WIyWlLk6GJQsqaUBKTNV-1">
          <mxGeometry x="60.99000000000001" y="275" width="125" height="35" as="geometry" />
        </mxCell>
        <mxCell id="_4H9zCoZYmA3ha7WxSan-90" style="edgeStyle=orthogonalEdgeStyle;rounded=0;orthogonalLoop=1;jettySize=auto;html=1;exitX=0.5;exitY=1;exitDx=0;exitDy=0;entryX=0.5;entryY=0;entryDx=0;entryDy=0;strokeColor=#0B4D6A;" edge="1" parent="WIyWlLk6GJQsqaUBKTNV-1" source="_4H9zCoZYmA3ha7WxSan-87" target="_4H9zCoZYmA3ha7WxSan-89">
          <mxGeometry relative="1" as="geometry" />
        </mxCell>
        <mxCell id="_4H9zCoZYmA3ha7WxSan-87" value="Budget Plan Page" style="rounded=1;whiteSpace=wrap;html=1;strokeColor=#BAC8D3;fontColor=#EEEEEE;fillColor=light-dark(#09555B,#7EA6E0);" vertex="1" parent="WIyWlLk6GJQsqaUBKTNV-1">
          <mxGeometry x="70.99000000000001" y="330" width="105" height="35" as="geometry" />
        </mxCell>
        <mxCell id="_4H9zCoZYmA3ha7WxSan-92" style="edgeStyle=orthogonalEdgeStyle;rounded=0;orthogonalLoop=1;jettySize=auto;html=1;exitX=0.5;exitY=1;exitDx=0;exitDy=0;entryX=0.5;entryY=0;entryDx=0;entryDy=0;strokeColor=#0B4D6A;" edge="1" parent="WIyWlLk6GJQsqaUBKTNV-1" source="_4H9zCoZYmA3ha7WxSan-89" target="_4H9zCoZYmA3ha7WxSan-91">
          <mxGeometry relative="1" as="geometry" />
        </mxCell>
        <mxCell id="_4H9zCoZYmA3ha7WxSan-89" value="Input&amp;nbsp;&lt;div&gt;Budget&amp;nbsp;&lt;span style=&quot;background-color: transparent; color: light-dark(rgb(238, 238, 238), rgb(32, 32, 32));&quot;&gt;Plan&lt;/span&gt;&lt;/div&gt;" style="shape=parallelogram;perimeter=parallelogramPerimeter;whiteSpace=wrap;html=1;fixedSize=1;strokeColor=#BAC8D3;fontColor=#EEEEEE;fillColor=light-dark(#09555B,#7EA6E0);" vertex="1" parent="WIyWlLk6GJQsqaUBKTNV-1">
          <mxGeometry x="71.99000000000001" y="388" width="103" height="41" as="geometry" />
        </mxCell>
        <mxCell id="_4H9zCoZYmA3ha7WxSan-93" style="edgeStyle=orthogonalEdgeStyle;rounded=0;orthogonalLoop=1;jettySize=auto;html=1;exitX=0.5;exitY=1;exitDx=0;exitDy=0;entryX=0;entryY=0.5;entryDx=0;entryDy=0;strokeColor=#0B4D6A;" edge="1" parent="WIyWlLk6GJQsqaUBKTNV-1" source="_4H9zCoZYmA3ha7WxSan-91" target="_4H9zCoZYmA3ha7WxSan-87">
          <mxGeometry relative="1" as="geometry">
            <Array as="points">
              <mxPoint x="123" y="503" />
              <mxPoint x="45" y="503" />
              <mxPoint x="45" y="347" />
            </Array>
          </mxGeometry>
        </mxCell>
        <mxCell id="_4H9zCoZYmA3ha7WxSan-91" value="Update database" style="rounded=1;whiteSpace=wrap;html=1;strokeColor=#BAC8D3;fontColor=#EEEEEE;fillColor=light-dark(#09555B,#7EA6E0);" vertex="1" parent="WIyWlLk6GJQsqaUBKTNV-1">
          <mxGeometry x="67.11000000000001" y="452" width="112.01" height="31" as="geometry" />
        </mxCell>
        <mxCell id="_4H9zCoZYmA3ha7WxSan-98" style="edgeStyle=orthogonalEdgeStyle;rounded=0;orthogonalLoop=1;jettySize=auto;html=1;exitX=0.5;exitY=1;exitDx=0;exitDy=0;entryX=0.5;entryY=0;entryDx=0;entryDy=0;strokeColor=#0B4D6A;" edge="1" parent="WIyWlLk6GJQsqaUBKTNV-1" source="_4H9zCoZYmA3ha7WxSan-94" target="_4H9zCoZYmA3ha7WxSan-99">
          <mxGeometry relative="1" as="geometry" />
        </mxCell>
        <mxCell id="_4H9zCoZYmA3ha7WxSan-94" value="Upload Page" style="rounded=1;whiteSpace=wrap;html=1;strokeColor=light-dark(#000000,#000000);fillColor=light-dark(#CDEB8B,#FFD966);fontColor=light-dark(#000000,#000000);" vertex="1" parent="WIyWlLk6GJQsqaUBKTNV-1">
          <mxGeometry x="272" y="261" width="105" height="35" as="geometry" />
        </mxCell>
        <mxCell id="_4H9zCoZYmA3ha7WxSan-100" style="edgeStyle=orthogonalEdgeStyle;rounded=0;orthogonalLoop=1;jettySize=auto;html=1;exitX=0.5;exitY=1;exitDx=0;exitDy=0;entryX=0.5;entryY=0;entryDx=0;entryDy=0;strokeColor=#0B4D6A;" edge="1" parent="WIyWlLk6GJQsqaUBKTNV-1" source="_4H9zCoZYmA3ha7WxSan-99" target="_4H9zCoZYmA3ha7WxSan-102">
          <mxGeometry relative="1" as="geometry">
            <mxPoint x="323.4950000000001" y="371" as="targetPoint" />
          </mxGeometry>
        </mxCell>
        <mxCell id="_4H9zCoZYmA3ha7WxSan-99" value="Upload&amp;nbsp;&lt;div&gt;Document&lt;/div&gt;" style="shape=parallelogram;perimeter=parallelogramPerimeter;whiteSpace=wrap;html=1;fixedSize=1;strokeColor=#BAC8D3;fontColor=#EEEEEE;fillColor=light-dark(#CDEB8B,#FFD966);" vertex="1" parent="WIyWlLk6GJQsqaUBKTNV-1">
          <mxGeometry x="270.56" y="315" width="103" height="41" as="geometry" />
        </mxCell>
        <mxCell id="_4H9zCoZYmA3ha7WxSan-101" style="edgeStyle=orthogonalEdgeStyle;rounded=0;orthogonalLoop=1;jettySize=auto;html=1;exitX=0.5;exitY=1;exitDx=0;exitDy=0;strokeColor=#0B4D6A;" edge="1" parent="WIyWlLk6GJQsqaUBKTNV-1" source="_4H9zCoZYmA3ha7WxSan-94" target="_4H9zCoZYmA3ha7WxSan-94">
          <mxGeometry relative="1" as="geometry" />
        </mxCell>
        <mxCell id="_4H9zCoZYmA3ha7WxSan-105" style="edgeStyle=orthogonalEdgeStyle;rounded=0;orthogonalLoop=1;jettySize=auto;html=1;exitX=0.5;exitY=1;exitDx=0;exitDy=0;entryX=0.5;entryY=0;entryDx=0;entryDy=0;strokeColor=#0B4D6A;" edge="1" parent="WIyWlLk6GJQsqaUBKTNV-1" source="_4H9zCoZYmA3ha7WxSan-102" target="_4H9zCoZYmA3ha7WxSan-104">
          <mxGeometry relative="1" as="geometry" />
        </mxCell>
        <mxCell id="_4H9zCoZYmA3ha7WxSan-102" value="Back-end Process" style="rounded=1;whiteSpace=wrap;html=1;strokeColor=#BAC8D3;fontColor=#EEEEEE;fillColor=light-dark(#CDEB8B,#FFD966);" vertex="1" parent="WIyWlLk6GJQsqaUBKTNV-1">
          <mxGeometry x="269" y="375" width="108" height="29" as="geometry" />
        </mxCell>
        <mxCell id="_4H9zCoZYmA3ha7WxSan-106" style="edgeStyle=orthogonalEdgeStyle;rounded=0;orthogonalLoop=1;jettySize=auto;html=1;exitX=0.5;exitY=1;exitDx=0;exitDy=0;entryX=1;entryY=0.5;entryDx=0;entryDy=0;strokeColor=#0B4D6A;" edge="1" parent="WIyWlLk6GJQsqaUBKTNV-1" source="_4H9zCoZYmA3ha7WxSan-104" target="_4H9zCoZYmA3ha7WxSan-94">
          <mxGeometry relative="1" as="geometry" />
        </mxCell>
        <mxCell id="_4H9zCoZYmA3ha7WxSan-104" value="Show result&lt;div&gt;in excel&lt;/div&gt;" style="shape=parallelogram;perimeter=parallelogramPerimeter;whiteSpace=wrap;html=1;fixedSize=1;strokeColor=#BAC8D3;fontColor=#EEEEEE;fillColor=light-dark(#CDEB8B,#FFD966);" vertex="1" parent="WIyWlLk6GJQsqaUBKTNV-1">
          <mxGeometry x="269" y="431" width="103" height="41" as="geometry" />
        </mxCell>
      </root>
    </mxGraphModel>
  </diagram>
</mxfile>
